<?xml version="1.0" encoding="UTF-8"?>
<!DOCTYPE svg PUBLIC "-//W3C//DTD SVG 1.1//EN" "http://www.w3.org/Graphics/SVG/1.1/DTD/svg11.dtd">
<svg xmlns="http://www.w3.org/2000/svg" version="1.1" width="73px" height="230px" style="shape-rendering:geometricPrecision; text-rendering:geometricPrecision; image-rendering:optimizeQuality; fill-rule:evenodd; clip-rule:evenodd" xmlns:xlink="http://www.w3.org/1999/xlink">
<g><path style="opacity:0.999" fill="#fee400" d="M 38.5,-0.5 C 39.1667,-0.5 39.8333,-0.5 40.5,-0.5C 43.2045,7.11253 46.2045,14.6125 49.5,22C 57.1594,22.4997 64.8261,22.6664 72.5,22.5C 72.5,23.1667 72.5,23.8333 72.5,24.5C 66.1216,29.0258 60.1216,34.0258 54.5,39.5C 57.0734,47.7197 59.74,55.8864 62.5,64C 62,64.5 61.5,65 61,65.5C 53.9303,60.0941 46.5969,55.0941 39,50.5C 32.0106,55.4854 25.0106,60.4854 18,65.5C 17.5,65 17,64.5 16.5,64C 19.1667,55.6667 21.8333,47.3333 24.5,39C 18.0325,34.3651 12.0325,29.1984 6.5,23.5C 14.1451,22.6685 21.8117,22.1685 29.5,22C 32.7968,14.6076 35.7968,7.10759 38.5,-0.5 Z"/></g>
<g><path style="opacity:1" fill="#fd00e5" d="M -0.5,228.5 C 0.166667,228.5 0.5,228.833 0.5,229.5C 0.166667,229.167 -0.166667,228.833 -0.5,228.5 Z"/></g>
</svg>
